<svg width="201" height="62" viewBox="0 0 201 62" fill="none" xmlns="http://www.w3.org/2000/svg">
<path d="M37.3816 4.29982C41.6866 3.30596 45.9825 5.98992 46.9764 10.2949L54.1746 41.4746C55.1684 45.7796 52.4844 50.0754 48.1795 51.0694L16.9998 58.2676C12.6949 59.2615 8.39909 56.5773 7.40507 52.2725L0.206826 21.0928C-0.787071 16.7878 1.89691 12.492 6.20194 11.4981L37.3816 4.29982ZM12.032 23.9502L13.0408 30.0127L12.1014 31.0156L10.1775 24.3789L9.43632 24.5498L10.618 31.3584L9.3328 30.8682L7.5828 24.9776L6.84061 25.1494L7.99686 33.5371C8.05381 34.7985 11.0431 34.6908 11.282 35.9258L13.1531 45.7227C13.4387 47.2304 14.9812 46.875 14.9812 46.875C14.9944 46.8719 16.5214 46.512 16.1189 45.0381L13.5066 35.4131C13.1793 34.1983 15.6651 33.0572 15.4119 31.8252L12.7732 23.7793L12.032 23.9502ZM39.2732 29.4639C37.8719 23.3943 31.8155 19.6105 25.7459 21.0117C19.6765 22.4132 15.8926 28.4686 17.2937 34.5381C18.695 40.6076 24.7506 44.3922 30.8201 42.9912C36.8897 41.5899 40.6745 35.5335 39.2732 29.4639ZM26.2537 23.209C28.5854 22.6708 31.0359 23.0806 33.0652 24.3486C35.0946 25.6168 36.5367 27.64 37.075 29.9717C37.6132 32.3032 37.2033 34.7529 35.9353 36.7822C34.6672 38.8116 32.6449 40.2546 30.3133 40.793C27.9816 41.3313 25.5312 40.9214 23.5017 39.6533C21.4725 38.3853 20.0304 36.3628 19.492 34.0313C18.9537 31.6995 19.3635 29.2492 20.6316 27.2197C21.8998 25.1903 23.922 23.7473 26.2537 23.209ZM42.8592 16.833C41.7617 17.0864 40.1762 18.4757 39.7762 20.126C39.4348 21.3536 39.7965 23.867 40.1346 25.3311L40.9969 29.0664C41.28 30.2909 42.9581 30.1863 43.5662 30.0459L44.7225 38.4346C44.9321 39.9468 46.5232 39.5919 46.5496 39.586C46.5496 39.586 48.0331 39.244 47.6883 37.75L42.8592 16.833ZM32.7557 27.8223C32.4996 27.6678 32.1925 27.6216 31.9021 27.6934C31.6118 27.7652 31.3614 27.949 31.2068 28.2051L27.7517 33.9336L25.7976 32.6699C25.5465 32.5103 25.2417 32.456 24.951 32.5195C24.6604 32.5831 24.4065 32.7591 24.2449 33.0088C24.0833 33.2587 24.0274 33.5633 24.0887 33.8545C24.15 34.1455 24.3236 34.401 24.5721 34.5645L27.1131 36.207C27.2905 36.3217 27.489 36.4 27.6971 36.4365C27.9052 36.473 28.1191 36.4674 28.325 36.4199C28.531 36.3724 28.7261 36.2833 28.8973 36.1592C29.0682 36.0352 29.2129 35.8781 29.3221 35.6973L33.1375 29.3711C33.292 29.115 33.3382 28.8079 33.2664 28.5176C33.1946 28.2272 33.0107 27.9768 32.7547 27.8223H32.7557Z" fill="#24722D"/>
<path d="M73.078 48.624C70.806 48.624 68.726 48.048 66.838 46.896C64.982 45.712 63.494 44.144 62.374 42.192C61.286 40.208 60.742 38.016 60.742 35.616C60.742 33.824 61.062 32.144 61.702 30.576C62.342 28.976 63.222 27.584 64.342 26.4C65.462 25.184 66.758 24.24 68.23 23.568C69.734 22.864 71.35 22.512 73.078 22.512C75.222 22.512 76.902 22.912 78.118 23.712C79.334 24.512 80.278 25.568 80.95 26.88V12.96H87.43V48H81.142V43.92C80.47 45.328 79.51 46.464 78.262 47.328C77.046 48.192 75.318 48.624 73.078 48.624ZM74.134 42.768C75.574 42.768 76.806 42.448 77.83 41.808C78.886 41.136 79.702 40.256 80.278 39.168C80.854 38.08 81.142 36.896 81.142 35.616C81.142 34.304 80.854 33.104 80.278 32.016C79.702 30.928 78.886 30.048 77.83 29.376C76.806 28.704 75.574 28.368 74.134 28.368C72.758 28.368 71.542 28.704 70.486 29.376C69.462 30.016 68.662 30.88 68.086 31.968C67.51 33.056 67.222 34.256 67.222 35.568C67.222 36.816 67.51 38 68.086 39.12C68.662 40.208 69.462 41.088 70.486 41.76C71.542 42.432 72.758 42.768 74.134 42.768ZM94.4961 20.976C93.4081 20.976 92.4801 20.608 91.7121 19.872C90.9761 19.104 90.6081 18.192 90.6081 17.136C90.6081 16.112 90.9761 15.232 91.7121 14.496C92.4801 13.728 93.4081 13.344 94.4961 13.344C95.6161 13.344 96.5441 13.728 97.2801 14.496C98.0161 15.232 98.3841 16.112 98.3841 17.136C98.3841 18.224 98.0161 19.136 97.2801 19.872C96.5441 20.608 95.6161 20.976 94.4961 20.976ZM91.2801 48V23.04H97.7601V48H91.2801ZM101.593 48V23.04H107.977V26.688C109.289 23.872 111.833 22.464 115.609 22.464C117.401 22.464 119.017 22.88 120.457 23.712C121.897 24.544 123.033 25.728 123.865 27.264C124.697 28.8 125.113 30.624 125.113 32.736V48H118.633V34.32C118.633 32.144 118.137 30.576 117.145 29.616C116.153 28.624 114.857 28.128 113.257 28.128C111.881 28.128 110.665 28.624 109.609 29.616C108.585 30.576 108.073 32.144 108.073 34.32V48H101.593ZM140.109 48.624C137.837 48.624 135.757 48.048 133.869 46.896C132.013 45.712 130.525 44.144 129.405 42.192C128.317 40.208 127.773 38.016 127.773 35.616C127.773 33.824 128.093 32.144 128.733 30.576C129.373 28.976 130.253 27.584 131.373 26.4C132.493 25.184 133.789 24.24 135.261 23.568C136.765 22.864 138.381 22.512 140.109 22.512C142.253 22.512 143.933 22.912 145.149 23.712C146.365 24.512 147.309 25.568 147.981 26.88V12.96H154.461V48H148.173V43.92C147.501 45.328 146.541 46.464 145.293 47.328C144.077 48.192 142.349 48.624 140.109 48.624ZM141.165 42.768C142.605 42.768 143.837 42.448 144.861 41.808C145.917 41.136 146.733 40.256 147.309 39.168C147.885 38.08 148.173 36.896 148.173 35.616C148.173 34.304 147.885 33.104 147.309 32.016C146.733 30.928 145.917 30.048 144.861 29.376C143.837 28.704 142.605 28.368 141.165 28.368C139.789 28.368 138.573 28.704 137.517 29.376C136.493 30.016 135.693 30.88 135.117 31.968C134.541 33.056 134.253 34.256 134.253 35.568C134.253 36.816 134.541 38 135.117 39.12C135.693 40.208 136.493 41.088 137.517 41.76C138.573 42.432 139.789 42.768 141.165 42.768ZM170.263 48.624C167.703 48.624 165.447 48.032 163.495 46.848C161.543 45.664 160.023 44.096 158.935 42.144C157.879 40.16 157.351 37.968 157.351 35.568C157.351 33.168 157.911 30.976 159.031 28.992C160.151 26.976 161.671 25.376 163.591 24.192C165.543 23.008 167.767 22.416 170.263 22.416C172.759 22.416 174.951 23.008 176.839 24.192C178.759 25.376 180.247 26.976 181.303 28.992C182.391 30.976 182.935 33.168 182.935 35.568C182.935 35.92 182.919 36.288 182.887 36.672C182.855 37.056 182.807 37.456 182.743 37.872H164.071C164.423 39.344 165.127 40.544 166.183 41.472C167.271 42.4 168.631 42.864 170.263 42.864C171.671 42.864 172.887 42.544 173.911 41.904C174.967 41.264 175.783 40.464 176.359 39.504L181.399 43.296C180.407 44.864 178.919 46.144 176.935 47.136C174.951 48.128 172.727 48.624 170.263 48.624ZM170.167 27.984C168.631 27.984 167.319 28.448 166.231 29.376C165.143 30.304 164.423 31.52 164.071 33.024H176.407C176.055 31.648 175.319 30.464 174.199 29.472C173.111 28.48 171.767 27.984 170.167 27.984ZM185.78 48V23.04H192.068V27.792C192.484 26 193.332 24.64 194.612 23.712C195.892 22.752 197.62 22.336 199.796 22.464V28.56H198.884C197.028 28.56 195.46 29.152 194.18 30.336C192.9 31.52 192.26 33.152 192.26 35.232V48H185.78Z" fill="#383838"/>
</svg>
