<svg width="178" height="178" viewBox="0 0 178 178" fill="none" xmlns="http://www.w3.org/2000/svg">
<path d="M137.139 0.20652C141.444 -0.786603 145.74 1.89782 146.734 6.20261L176.961 137.055C177.955 141.36 175.272 145.656 170.967 146.649L40.0293 176.861C35.7246 177.854 31.4284 175.169 30.4336 170.865L0.207035 40.0112C-0.787354 35.7063 1.89608 31.4118 6.20118 30.4184L137.139 0.20652ZM41.0928 65.5727L44.2539 84.5522L41.3086 87.6958L35.2842 66.9126L32.9609 67.4487L36.6621 88.768L32.6377 87.2329L27.1533 68.7886L24.8301 69.3247L28.4502 95.5903C28.629 99.54 37.9964 99.2018 38.7432 103.07L44.6055 133.745C45.4955 138.44 50.2813 137.363 50.332 137.351C50.332 137.351 55.1647 136.236 53.8984 131.601L45.7129 101.461C44.6879 97.6578 52.4752 94.0871 51.6826 90.23L43.416 65.0366L41.0928 65.5727ZM126.438 82.8364C122.048 63.8315 103.075 51.982 84.0586 56.3696C65.0428 60.7573 53.187 79.7203 57.5772 98.7251C61.9677 117.729 80.9414 129.578 99.957 125.191C118.973 120.803 130.828 101.841 126.438 82.8364ZM85.6484 63.2524C92.9537 61.5669 100.63 62.8501 106.988 66.8208C113.346 70.7915 117.865 77.1244 119.552 84.4253C121.238 91.726 119.954 99.3982 115.981 105.752C112.008 112.107 105.672 116.624 98.3672 118.309C91.0621 119.995 83.3854 118.71 77.0273 114.74C70.6696 110.769 66.1506 104.437 64.4639 97.1362C62.7774 89.8354 64.0614 82.1634 68.0342 75.8091C72.0071 69.4547 78.3433 64.938 85.6484 63.2524ZM137.674 43.2886C134.236 44.0819 129.269 48.43 128.016 53.5971C126.946 57.4408 128.079 65.3095 129.138 69.894L131.839 81.5893C132.725 85.4253 137.985 85.0992 139.89 84.6596L143.51 110.924C144.169 115.677 149.19 114.541 149.236 114.531C149.236 114.531 153.883 113.458 152.803 108.781L137.674 43.2886ZM106.02 77.6958C105.217 77.212 104.255 77.0668 103.346 77.2915C102.436 77.5163 101.652 78.0931 101.168 78.895L90.3408 96.8305L84.2197 92.8745C83.433 92.3746 82.4801 92.2059 81.5693 92.4048C80.6585 92.6038 79.8628 93.1545 79.3564 93.937C78.8502 94.7194 78.6732 95.6707 78.8652 96.5825C79.0574 97.4942 79.603 98.2932 80.3818 98.8052L88.3408 103.95C88.8971 104.309 89.5205 104.553 90.1729 104.667C90.825 104.782 91.4936 104.764 92.1387 104.615C92.784 104.466 93.3934 104.189 93.9297 103.8C94.4659 103.412 94.9194 102.92 95.2617 102.353L107.216 82.5454C107.7 81.7436 107.845 80.7816 107.62 79.8725C107.395 78.9636 106.818 78.1806 106.016 77.6968L106.02 77.6958Z" fill="#24722D"/>
</svg>
